<svg xmlns="http://www.w3.org/2000/svg" viewBox="0 0 128 128" role="img" aria-label="UmaLab">
  <defs>
    <linearGradient id="bg" x1="20" y1="12" x2="112" y2="118" gradientUnits="userSpaceOnUse">
      <stop offset="0" stop-color="#5BA4FF" />
      <stop offset="0.58" stop-color="#2F7FE7" />
      <stop offset="1" stop-color="#2B8C68" />
    </linearGradient>
    <linearGradient id="track" x1="24" y1="88" x2="104" y2="88" gradientUnits="userSpaceOnUse">
      <stop offset="0" stop-color="#F8D06B" />
      <stop offset="1" stop-color="#F17D72" />
    </linearGradient>
  </defs>
  <rect width="128" height="128" rx="30" fill="url(#bg)" />
  <path
    d="M29 87c11-14 21-21 31-21h20c8 0 14-4 18-11l4-7c1-2 4-2 6 0 3 4 6 9 8 15 1 3-1 6-5 6h-9c-5 0-8 2-11 6l-7 12"
    fill="none"
    stroke="#FFFFFF"
    stroke-width="9"
    stroke-linecap="round"
    stroke-linejoin="round"
  />
  <path
    d="M52 66l-9-18c-2-4 1-9 5-9h11c8 0 15 4 19 11l4 7"
    fill="none"
    stroke="#EAF5FF"
    stroke-width="9"
    stroke-linecap="round"
    stroke-linejoin="round"
  />
  <path d="M43 90h62" stroke="url(#track)" stroke-width="10" stroke-linecap="round" />
  <circle cx="88" cy="43" r="5" fill="#FFFFFF" />
  <path d="M38 101h19M72 101h19" stroke="#CDE9FF" stroke-width="7" stroke-linecap="round" />
</svg>
